HIERARCHY
ROOT hips
{
  OFFSET 0 10.6860622 2.3727825e-15
  CHANNELS 6 Xposition Yposition Zposition Yrotation Xrotation Zrotation
  JOINT leftUpperLeg
  {
    OFFSET 0.6642549969 -0.9402397400000004 0
    CHANNELS 3 Yrotation Xrotation Zrotation
    JOINT leftLowerLeg
    {
      OFFSET 0 -3.997221335632195 0
      CHANNELS 3 Yrotation Xrotation Zrotation
      JOINT leftFoot
      {
        OFFSET -0.13777839790000004 -4.6145792000000005 -0.22186036399999998
        CHANNELS 3 Yrotation Xrotation Zrotation
        JOINT leftToes
        {
          OFFSET -0.03777410834999995 -0.9130806927000008 0.85230013
          CHANNELS 3 Yrotation Xrotation Zrotation
          End Site
          {
            OFFSET -0.03777410834999995 -0.9130806927000008 0.85230013
          }
        }
      }
    }
  }
  JOINT rightUpperLeg
  {
    OFFSET -0.6642778626 -0.9402397400000004 0
    CHANNELS 3 Yrotation Xrotation Zrotation
    JOINT rightLowerLeg
    {
      OFFSET 0 -3.997221452859387 0
      CHANNELS 3 Yrotation Xrotation Zrotation
      JOINT rightFoot
      {
        OFFSET 0.1377926176 -4.6145792000000005 -0.22185782299999995
        CHANNELS 3 Yrotation Xrotation Zrotation
        JOINT rightToes
        {
          OFFSET 0.037780746850000047 -0.9130806927000008 0.85230167
          CHANNELS 3 Yrotation Xrotation Zrotation
          End Site
          {
            OFFSET 0.037780746850000047 -0.9130806927000008 0.85230167
          }
        }
      }
    }
  }
  JOINT spine
  {
    OFFSET 0 0.13988381660000015 0
    CHANNELS 3 Yrotation Xrotation Zrotation
    JOINT chest
    {
      OFFSET 0 0.6191039003973773 0
      CHANNELS 3 Yrotation Xrotation Zrotation
      JOINT upperChest
      {
        OFFSET 0 0.9855186130586943 0
        CHANNELS 3 Yrotation Xrotation Zrotation
        JOINT leftShoulder
        {
          OFFSET 0.1807663869 1.5087829790000005 0
          CHANNELS 3 Yrotation Xrotation Zrotation
          JOINT leftUpperArm
          {
            OFFSET 0.5985063006419806 0 0
            CHANNELS 3 Yrotation Xrotation Zrotation
            JOINT leftLowerArm
            {
              OFFSET 2.2993332369501065 0 0
              CHANNELS 3 Yrotation Xrotation Zrotation
              JOINT leftHand
              {
                OFFSET 2.395047042602395 0 0
                CHANNELS 3 Yrotation Xrotation Zrotation
                JOINT leftIndexProximal
                {
                  OFFSET 0.5766295810000004 0.04556643899499946 0.17265095988184
                  CHANNELS 3 Yrotation Xrotation Zrotation
                  JOINT leftIndexIntermediate
                  {
                    OFFSET 0.2957229000000008 -0.019352197700001517 -0.007932640616999987
                    CHANNELS 3 Yrotation Xrotation Zrotation
                    JOINT leftIndexDistal
                    {
                      OFFSET 0.19008243099999922 -0.012484908149998475 -0.002786250786000012
                      CHANNELS 3 Yrotation Xrotation Zrotation
                      End Site
                      {
                        OFFSET 0.19008243099999922 -0.012484908149998475 -0.002786250786000012
                      }
                    }
                  }
                }
                JOINT leftMiddleProximal
                {
                  OFFSET 0.5834975091000001 0.0524350405149987 0.02204081888183999
                  CHANNELS 3 Yrotation Xrotation Zrotation
                  JOINT leftMiddleIntermediate
                  {
                    OFFSET 0.33880573540000003 -0.019871473270000717 -0.00000971183179999946
                    CHANNELS 3 Yrotation Xrotation Zrotation
                    JOINT leftMiddleDistal
                    {
                      OFFSET 0.20676022730000088 -0.012221336379999448 0.0001471936708000235
                      CHANNELS 3 Yrotation Xrotation Zrotation
                      End Site
                      {
                        OFFSET 0.20676022730000088 -0.012221336379999448 0.0001471936708000235
                      }
                    }
                  }
                }
                JOINT leftLittleProximal
                {
                  OFFSET 0.5344154683999995 -0.012880921405001189 -0.24414037221816004
                  CHANNELS 3 Yrotation Xrotation Zrotation
                  JOINT leftLittleIntermediate
                  {
                    OFFSET 0.21758961730000093 -0.011650919939999227 0.011893592810000034
                    CHANNELS 3 Yrotation Xrotation Zrotation
                    JOINT leftLittleDistal
                    {
                      OFFSET 0.1475273964999999 -0.008152365682999818 0.006001092492999946
                      CHANNELS 3 Yrotation Xrotation Zrotation
                      End Site
                      {
                        OFFSET 0.1475273964999999 -0.008152365682999818 0.006001092492999946
                      }
                    }
                  }
                }
                JOINT leftRingProximal
                {
                  OFFSET 0.5799399463000003 0.026911854694997794 -0.12150566991816003
                  CHANNELS 3 Yrotation Xrotation Zrotation
                  JOINT leftRingIntermediate
                  {
                    OFFSET 0.26167887460000006 -0.013480186499999602 0.010996293000000053
                    CHANNELS 3 Yrotation Xrotation Zrotation
                    JOINT leftRingDistal
                    {
                      OFFSET 0.17667108799999987 -0.008990287899999228 0.0055541023999999065
                      CHANNELS 3 Yrotation Xrotation Zrotation
                      End Site
                      {
                        OFFSET 0.17667108799999987 -0.008990287899999228 0.0055541023999999065
                      }
                    }
                  }
                }
                JOINT leftThumbProximal
                {
                  OFFSET 0.11018806699999972 -0.09448718900500053 0.17047963138184
                  CHANNELS 3 Yrotation Xrotation Zrotation
                  JOINT leftThumbIntermediate
                  {
                    OFFSET 0.31062601459999983 -0.08126270900000132 0.15443142000000007
                    CHANNELS 3 Yrotation Xrotation Zrotation
                    JOINT leftThumbDistal
                    {
                      OFFSET 0.21627175790000086 -0.08833193599999878 0.018771167799999988
                      CHANNELS 3 Yrotation Xrotation Zrotation
                      End Site
                      {
                        OFFSET 0.21627175790000086 -0.08833193599999878 0.018771167799999988
                      }
                    }
                  }
                }
              }
            }
          }
        }
        JOINT neck
        {
          OFFSET 0 1.5463305265074576 0
          CHANNELS 3 Yrotation Xrotation Zrotation
          JOINT head
          {
            OFFSET 0 0.8456443600000344 0
            CHANNELS 3 Yrotation Xrotation Zrotation
            JOINT leftEye
            {
              OFFSET 0.30408573140000006 0.5104519199999995 0.1276382305
              CHANNELS 3 Yrotation Xrotation Zrotation
              End Site
              {
                OFFSET 0.30408573140000006 0.5104519199999995 0.1276382305
              }
            }
            JOINT rightEye
            {
              OFFSET -0.30409491089999996 0.5104519199999995 0.1276379445
              CHANNELS 3 Yrotation Xrotation Zrotation
              End Site
              {
                OFFSET -0.30409491089999996 0.5104519199999995 0.1276379445
              }
            }
            JOINT jaw
            {
              OFFSET -3.155239131000001e-7 -0.11984121820000082 0.60178107
              CHANNELS 3 Yrotation Xrotation Zrotation
              End Site
              {
                OFFSET -3.155239131000001e-7 -0.11984121820000082 0.60178107
              }
            }
          }
        }
        JOINT rightShoulder
        {
          OFFSET -0.1807303465 1.5087829790000005 0
          CHANNELS 3 Yrotation Xrotation Zrotation
          JOINT rightUpperArm
          {
            OFFSET -0.5985063796536958 0 0
            CHANNELS 3 Yrotation Xrotation Zrotation
            JOINT rightLowerArm
            {
              OFFSET -2.2993322059002854 0 0
              CHANNELS 3 Yrotation Xrotation Zrotation
              JOINT rightHand
              {
                OFFSET -2.395045314457259 0 0
                CHANNELS 3 Yrotation Xrotation Zrotation
                JOINT rightIndexProximal
                {
                  OFFSET -0.5764487688300002 0.0441371204405987 0.17361932004999997
                  CHANNELS 3 Yrotation Xrotation Zrotation
                  JOINT rightIndexIntermediate
                  {
                    OFFSET -0.29573011380000047 -0.01934826376999843 -0.007698921482999974
                    CHANNELS 3 Yrotation Xrotation Zrotation
                    JOINT rightIndexDistal
                    {
                      OFFSET -0.19008373999999884 -0.012503266380000655 -0.0026365778999999897
                      CHANNELS 3 Yrotation Xrotation Zrotation
                      End Site
                      {
                        OFFSET -0.19008373999999884 -0.012503266380000655 -0.0026365778999999897
                      }
                    }
                  }
                }
                JOINT rightMiddleProximal
                {
                  OFFSET -0.5834852037300005 0.05211639405060153 0.02307162440000001
                  CHANNELS 3 Yrotation Xrotation Zrotation
                  JOINT rightMiddleIntermediate
                  {
                    OFFSET -0.33880114510000003 -0.019952774050000954 0.0002455003561999819
                    CHANNELS 3 Yrotation Xrotation Zrotation
                    JOINT rightMiddleDistal
                    {
                      OFFSET -0.20675694929999955 -0.012273788999999091 0.00030209124000002766
                      CHANNELS 3 Yrotation Xrotation Zrotation
                      End Site
                      {
                        OFFSET -0.20675694929999955 -0.012273788999999091 0.00030209124000002766
                      }
                    }
                  }
                }
                JOINT rightLittleProximal
                {
                  OFFSET -0.5346811737299992 -0.011214256288399227 -0.24363941305000003
                  CHANNELS 3 Yrotation Xrotation Zrotation
                  JOINT rightLittleIntermediate
                  {
                    OFFSET -0.21757715980000092 -0.011771559690000988 0.01201554387
                    CHANNELS 3 Yrotation Xrotation Zrotation
                    JOINT rightLittleDistal
                    {
                      OFFSET -0.1475201849000004 -0.00822055339600003 0.006082065407000015
                      CHANNELS 3 Yrotation Xrotation Zrotation
                      End Site
                      {
                        OFFSET -0.1475201849000004 -0.00822055339600003 0.006082065407000015
                      }
                    }
                  }
                }
                JOINT rightRingProximal
                {
                  OFFSET -0.5800810755299999 0.027657985680600072 -0.12066365025000003
                  CHANNELS 3 Yrotation Xrotation Zrotation
                  JOINT rightRingIntermediate
                  {
                    OFFSET -0.26166445029999974 -0.013623118409999302 0.011164098990000045
                    CHANNELS 3 Yrotation Xrotation Zrotation
                    JOINT rightRingDistal
                    {
                      OFFSET -0.17666387530000027 -0.009072900100000503 0.005668185599999959
                      CHANNELS 3 Yrotation Xrotation Zrotation
                      End Site
                      {
                        OFFSET -0.17666387530000027 -0.009072900100000503 0.005668185599999959
                      }
                    }
                  }
                }
                JOINT rightThumbProximal
                {
                  OFFSET -0.10997596379000074 -0.09577489355940072 0.16989765924999997
                  CHANNELS 3 Yrotation Xrotation Zrotation
                  JOINT rightThumbIntermediate
                  {
                    OFFSET -0.31036620999999986 -0.08229339117999834 0.15440884469999996
                    CHANNELS 3 Yrotation Xrotation Zrotation
                    JOINT rightThumbDistal
                    {
                      OFFSET -0.21631306399999906 -0.08825326400000111 0.018656797720000014
                      CHANNELS 3 Yrotation Xrotation Zrotation
                      End Site
                      {
                        OFFSET -0.21631306399999906 -0.08825326400000111 0.018656797720000014
                      }
                    }
                  }
                }
              }
            }
          }
        }
      }
    }
  }
}
MOTION
Frames: 9
Frame Time: 0.03333333333333333
0 11.682712981546562 0 0 0 0 0 0 -5.826343164929014 -0.3712483961610101 -3.6333298826370974 5.838118207697276 0 0 0 0 0 0 0 0 5.826343164929014 0.3712483961610101 -3.6333298826370974 -5.838118207697276 0 0 0 0 0 0 0 -4.610651315171937 0 0 3.0831277533083026 0 0 0 0 0 1.5275236235667615 0 0 0 0 0 0 0 0 0 0 0 0 0 0 0 0 0 0 0 0 0 0 0 0 0 0 0 0 0 0 0 0 0 0 0 0 0 0 0 0 0 0 0 0 0 0 0 0 0 0 0 0 0 0 0 0 1.5275236235667615 0 0 0 0 0 0 0 0 0 0 0 0 0 0 1.5275236235667615 0 0 0 0 0 0 0 0 0 0 0 0 0 0 0 0 0 0 0 0 0 0 0 0 0 0 0 0 0 0 0 0 0 0 0 0 0 0 0 0 0 0 0 0 0 0 0 0 0 0 0 0 0 0 0
0.1942864812757559 -0.10238359973512771 -2.201680042646621 0 0 0 7.192696436853379 4.349598473709235 5.0150310543279115 1.6236995429845236 18.357972833799863 4.455041711119041 10.170343821045288 -9.740641795063347 -16.82035314746472 0 0 0 -2.6070422094166856 4.968999733414047 -1.1061088766139724 -1.5046451889630612 18.569083864762582 -4.649064184678291 -15.459774442382745 -9.423341513475215 15.540829343218995 0 0 0 -0.3636223728294032 -6.803257613593551 -0.47625910941227845 -2.099069281117915 41.144566274289424 -1.8637335403374402 0 0 0 -21.371438336131703 -3.70665548968886 -9.252496433306884 -2.829336076891041 -13.05960166951184 -54.08473035832185 -43.33715174540267 6.029604571690433 -3.039846806910384 1.4059502537572872 -5.552886459995657 12.391866129717519 0 0 0 0 0 0 0 0 0 0 0 0 0 0 0 0 0 0 0 0 0 0 0 0 0 0 0 0 0 0 0 0 0 0 0 0 0 0 0 0 0 0 0 0 0 0 1.7425925879041178 0 0 0.152119003616217 0 0 0 0 0 0 0 0 0 0 21.368046108824206 -3.705704531496444 9.249115891426909 2.8266192386196995 -13.057901377184454 54.080989664782095 43.333233899677495 6.030990659181882 3.0363944976475192 -1.4092678964069738 -5.55330935507206 -12.395233399148433 0 0 0 0 0 0 0 0 0 0 0 0 0 0 0 0 0 0 0 0 0 0 0 0 0 0 0 0 0 0 0 0 0 0 0 0 0 0 0 0 0 0 0 0 0
0.1942864812757559 -0.10238359973512771 -2.264561936283193 0 1.270524963852077 0 7.003715551725412 2.3275122278908533 4.752225409808027 1.6738582306121719 19.169186100478456 4.6130657547015055 10.170343821045288 -9.740641795063347 -16.82035314746472 0 0 0 -2.516900279365241 2.928580977567344 -0.9640013480076165 -1.5549825035283082 19.380418599464726 -4.8206076882691 -15.459774442382745 -9.423341513475215 15.540829343218995 0 0 0 -0.36312056751435384 -6.192924786479064 -0.48022815141715475 -2.0140935259437955 38.28979738557334 -1.7307425339933256 0 0 0 -21.016769378961 -2.8934857204622175 -9.50107266412906 -2.8310032528494924 -13.02731038334921 -54.33996438494475 -43.33716145439367 6.029605430213643 -3.039846806910384 1.5081942520082823 -5.263846528854379 12.315620379737858 0 0 0 0 0 0 0 0 0 0 0 0 0 0 0 0 0 0 0 0 0 0 0 0 0 0 0 0 0 0 0 0 0 0 0 0 0 0 0 0 0 0 0 0 0 0 1.8021535475671122 0 0 0.19383200032462933 0 0 0 0 0 0 0 0 0 0 20.986383919471844 -2.884823849015075 9.466331465342597 2.830148864987936 -13.02550252541789 54.329069205699916 43.333233899677495 6.030990659181882 3.0363944976475192 -1.5051633097382342 -5.258483152323293 -12.295699028363838 0 0 0 0 0 0 0 0 0 0 0 0 0 0 0 0 0 0 0 0 0 0 0 0 0 0 0 0 0 0 0 0 0 0 0 0 0 0 0 0 0 0 0 0 0
0.1942864812757559 -0.10238359973512771 -2.3274438299197646 0 2.5435760905865563 0 6.823243516112086 0.29396452072463874 4.494975724537348 1.7266942268705965 19.980940069979983 4.772775755509087 10.17034467369576 -9.740640928801415 -16.820354805865584 0 0 0 -2.4314926900477043 0.8772223393875157 -0.8245515345034624 -1.6082097298345508 20.19228762734455 -4.993931813038743 -15.45977611065978 -9.423342378927673 15.540831010841615 0 0 0 -0.36266072601056903 -5.582315278683547 -0.4841906627796938 -1.939638751258155 35.40477904500768 -1.606574591849483 0 0 0 -20.665497769370557 -2.077964899315582 -9.744700741681145 -2.8328173093135716 -12.99502593599306 -54.59519133453943 -43.33715174540267 6.029604571690433 -3.039846806910384 1.6100181078641245 -4.974636638732465 12.239916411327611 0 0 0 0 0 0 0 0 0 0 0 0 0 0 0 0 0 0 0 0 0 0 0 0 0 0 0 0 0 0 0 0 0 0 0 0 0 0 0 0 0 0 0 0 0 0 1.8617176299620122 0 0 0.2355469940960758 0 0 0 0 0 0 0 0 0 0 20.607676371230202 -2.0616582826208805 9.67815459289517 2.8338193666007063 -12.993114920958005 54.577143241049086 43.333233899677495 6.030990659181882 3.0363944976475192 -1.600512549200314 -4.963454145450077 -12.19668985465333 0 0 0 0 0 0 0 0 0 0 0 0 0 0 0 0 0 0 0 0 0 0 0 0 0 0 0 0 0 0 0 0 0 0 0 0 0 0 0 0 0 0 0 0 0
0.1942864812757559 -0.10238359973512771 -2.3903257235563373 0 3.8188471430121327 0 6.651055386189238 -1.7497595038115583 4.2428757096225205 1.782271529253322 20.79314052182439 4.934248418556888 10.170343821045288 -9.740643527587217 -16.82035314746472 0 0 0 -2.350711059330836 -1.1838144924632674 -0.6875232425787664 -1.6643932917286162 21.00459460690405 -5.169118655599998 -15.459774442382745 -9.423341513475215 15.540829343218995 0 0 0 -0.36224394843260466 -4.971461454660403 -0.48814434890471325 -1.8745235690818622 32.49280241542287 -1.489954161400392 0 0 0 -20.317529080556785 -1.2602389653123838 -9.983433506141484 -2.8347784550974398 -12.962743057923928 -54.850396142630814 -43.33716145439367 6.029605430213643 -3.039846806910384 1.7114248094789373 -4.6852625056366115 12.164752766057424 0 0 0 0 0 0 0 0 0 0 0 0 0 0 0 0 0 0 0 0 0 0 0 0 0 0 0 0 0 0 0 0 0 0 0 0 0 0 0 0 0 0 0 0 0 0 1.9212845794320499 0 0 0.2772619926633866 0 0 0 0 0 0 0 0 0 0 20.23182795568851 -1.2363578376868947 9.884629448500402 2.837638221173781 -12.960738549052163 54.82518655215918 43.33323875417572 6.030991946969988 3.0363944976475192 -1.6953199141053314 -4.66822807463627 -12.098205239139286 0 0 0 0 0 0 0 0 0 0 0 0 0 0 0 0 0 0 0 0 0 0 0 0 0 0 0 0 0 0 0 0 0 0 0 0 0 0 0 0 0 0 0 0 0
0.1942864812757559 -0.10238359973512771 -2.4532076171929087 0 5.096023803682407 0 6.48694617158511 -3.8023370799929896 3.9955246362012735 1.8406542485974962 21.605701990571582 5.097561338877332 10.170343821045288 -9.740641795063347 -16.82035314746472 0 0 0 -2.2744592814541305 -3.2532319806738674 -0.5526844790543892 -1.7236043213785688 21.81724820091017 -5.346251453336515 -15.459774442382745 -9.423339782570306 15.540827675596347 0 0 0 -0.3618699089653231 -4.36039958743096 -0.492091846765967 -1.8177601821116631 29.557276370588617 -1.37979685646237 0 0 0 -19.972780432951765 -0.4404525018217197 -10.217322642443426 -2.8368881204597183 -12.930467870190025 -55.105584974476315 -43.33714924769102 6.029604571690433 -3.0398457352664368 1.8124208607913237 -4.395730235463198 12.090124379915647 0 0 0 0 0 0 0 0 0 0 0 0 0 0 0 0 0 0 0 0 0 0 0 0 0 0 0 0 0 0 0 0 0 0 0 0 0 0 0 0 0 0 0 0 0 0 1.9808546742299178 0 0 0.31897900586147576 0 0 0 0 0 0 0 0 0 0 19.858740877504356 -0.40907564445372385 10.08580130070522 2.841595441457908 -12.928380402811351 55.0732370861426 43.333233899677495 6.030990659181882 3.0363944976475192 -1.7895878464151052 -4.372813203934751 -12.00024386998757 0 0 0 0 0 0 0 0 0 0 0 0 0 0 0 0 0 0 0 0 0 0 0 0 0 0 0 0 0 0 0 0 0 0 0 0 0 0 0 0 0 0 0 0 0
0.1942864812757559 -0.10238359973512771 -2.516089779221752 0 6.374799041849804 0 6.330743584557335 -5.862421542276649 3.752535406846326 1.9019096486283513 22.41852192617119 5.2627949772645035 10.170343821045288 -9.740641795063347 -16.82035314746472 0 0 0 -2.202661090608178 -5.329701397514827 -0.4198100770144606 -1.7859138246637858 22.63015088620924 -5.5254184376275255 -15.459774442382745 -9.423341513475215 15.540829343218995 0 0 0 -0.36153843384745177 -3.749162615231791 -0.496033965993201 -1.7685331295284847 26.601858389753605 -1.2751797694014786 0 0 0 -19.631167474209573 0.38124777780593355 -10.446423263600462 -2.8391453751931643 -12.898201235438359 -55.360760302152705 -43.33715174540267 6.029604571690433 -3.0398457352664368 1.9130072533642168 -4.10604846477172 12.016034022250766 0 0 0 0 0 0 0 0 0 0 0 0 0 0 0 0 0 0 0 0 0 0 0 0 0 0 0 0 0 0 0 0 0 0 0 0 0 0 0 0 0 0 0 0 0 0 2.0404275519288078 0 0 0.36069698859054944 0 0 0 0 0 0 0 0 0 0 19.488314869473452 0.4200423338503783 10.281708520252135 2.8456992891159225 -12.896034333759236 55.32124926060776 43.333233899677495 6.030990659181882 3.0363944976475192 -1.8833216008809732 -4.077214326520089 -11.902799604870907 0 0 0 0 0 0 0 0 0 0 0 0 0 0 0 0 0 0 0 0 0 0 0 0 0 0 0 0 0 0 0 0 0 0 0 0 0 0 0 0 0 0 0 0 0
0.1942864812757559 -0.10238359973512771 -2.5789716728583243 0 7.6548492471728045 0 6.182298157249613 -7.928632222114239 3.5135298904449273 1.9661100318020384 23.231505984518602 5.43003355546807 10.170343821045288 -9.740641795063347 -16.82035314746472 0 0 0 -2.135254021137966 -7.411867265840114 -0.28867404639398886 -1.8513990694333873 23.44320970883921 -5.706709430249365 -15.459774442382745 -9.423341513475215 15.540829343218995 0 0 0 -0.36124950702333214 -3.1377878963986103 -0.499970249445805 -1.7261611801549495 23.630314654093354 -1.1753094764557634 0 0 0 -19.292594369377145 1.204717597861899 -10.670775247250683 -2.841548415211847 -12.865944891646413 -55.615909949327744 -43.33715174540267 6.029604571690433 -3.039846806910384 2.013188875626728 -3.816217662152032 11.942473533110205 0 0 0 0 0 0 0 0 0 0 0 0 0 0 0 0 0 0 0 0 0 0 0 0 0 0 0 0 0 0 0 0 0 0 0 0 0 0 0 0 0 0 0 0 0 0 2.1000045587603937 0 0 0.40241598966132813 0 0 0 0 0 0 0 0 0 0 19.120456857909375 1.250840502991282 10.4723919290909 2.8499443347186237 -12.8637055814179 55.56925327271314 43.333233899677495 6.030990659181882 3.0363944976475192 -1.9765222862327336 -3.781438762612525 -11.805866113680572 0 0 0 0 0 0 0 0 0 0 0 0 0 0 0 0 0 0 0 0 0 0 0 0 0 0 0 0 0 0 0 0 0 0 0 0 0 0 0 0 0 0 0 0 0
0.1942864812757559 -0.10238359973512771 -2.641853566494896 0 8.935862337489086 0 6.0414818480799966 -9.999575250454107 3.2781280737479825 2.033330057191363 24.044582994750602 5.599364120752583 10.170343821045288 -9.740641795063347 -16.82035314746472 0 0 0 -2.072191267358525 -9.49835412175954 -0.1590537473353656 -1.9201394759668156 24.256328699908313 -5.8902172209342405 -15.45977611065978 -9.423341513475215 15.540829343218995 0 0 0 -0.3610018911630151 -2.5263082694135433 -0.5039025192007557 -1.6900719688159884 20.646573741256848 -1.0794899278628936 0 0 0 -18.956986920974032 2.029812078291201 -10.890429935107136 -2.844099591895019 -12.83369444637683 -55.87102951975983 -43.33715174540267 6.029604571690433 -3.039846806910384 2.1129694133309993 -3.5262489624695914 11.869441650361608 0 0 0 0 0 0 0 0 0 0 0 0 0 0 0 0 0 0 0 0 0 0 0 0 0 0 0 0 0 0 0 0 0 0 0 0 0 0 0 0 0 0 0 0 0 0 2.1595846916339756 0 0 0.4441360045261094 0 0 0 0 0 0 0 0 0 0 18.755072803484378 2.083171441701228 10.657888740636178 2.8543348117697005 -12.831394128795486 55.81722879486807 43.333233899677495 6.030990659181882 3.0363944976475192 -2.069197142936899 -3.4854929353205906 -11.70944325370459 0 0 0 0 0 0 0 0 0 0 0 0 0 0 0 0 0 0 0 0 0 0 0 0 0 0 0 0 0 0 0 0 0 0 0 0 0 0 0 0 0 0 0 0 0
